<?xml version="1.0" encoding="utf-8"?>
<!-- Generator: Adobe Illustrator 24.3.0, SVG Export Plug-In . SVG Version: 6.00 Build 0)  -->
<svg version="1.1" id="Layer_1" xmlns="http://www.w3.org/2000/svg" xmlns:xlink="http://www.w3.org/1999/xlink" x="0px" y="0px"
	 viewBox="0 0 450 150" style="enable-background:new 0 0 450 150;" xml:space="preserve">
<style type="text/css">
	.st0{fill:url(#SVGID_1_);}
	.st1{opacity:0.6;}
	.st2{fill:#00D6FF;}
	.st3{opacity:0.7;}
	.st4{fill:#2D2D2D;}
	.st5{fill:#3A3A3A;}
	.st6{fill:#999999;}
	.st7{opacity:0.4;fill:#383838;}
	.st8{opacity:0.4;fill:#565656;}
	.st9{fill:#B2B2B2;}
	.st10{opacity:0.4;fill:#EEEEEE;}
	.st11{opacity:0.4;fill:#777777;}
	.st12{fill:#FDCD16;}
	.st13{fill:#E9B40A;}
	.st14{fill:#C8960D;}
	.st15{enable-background:new    ;}
	.st16{fill:#FFDC87;}
	.st17{fill:#565656;}
	.st18{fill:#96F7FF;}
	.st19{fill:#969696;}
	.st20{fill:#5E5E5E;}
	.st21{fill:#7F7F7F;}
	.st22{fill:#AFAFAF;}
	.st23{fill:#C39E11;}
	.st24{fill:#DAB013;}
	.st25{fill:#AE8104;}
	.st26{fill:#E4BD67;}
	.st27{fill:#BE9E66;}
	.st28{fill:#906700;}
	.st29{fill:#B67A00;}
	.st30{clip-path:url(#SVGID_3_);}
	.st31{fill:#FF0000;}
	.st32{fill:url(#SVGID_4_);}
	.st33{fill:url(#SVGID_5_);}
	.st34{fill:#808080;}
	.st35{fill:#9F9F9F;}
	.st36{fill:#848484;}
	.st37{fill:#ABC7DC;}
	.st38{fill:url(#SVGID_6_);}
	.st39{fill:url(#SVGID_7_);}
	.st40{fill:url(#SVGID_8_);}
	.st41{fill:#052749;}
	.st42{fill:#405E88;}
	.st43{fill:#33D8FF;}
	.st44{fill:url(#SVGID_9_);}
	.st45{fill:#2C74DB;}
	.st46{fill:#2259A8;}
	.st47{fill:#2562B9;}
	.st48{clip-path:url(#SVGID_11_);enable-background:new    ;}
	.st49{fill:#C60000;}
	.st50{fill:#C10000;}
	.st51{fill:#BC0000;}
	.st52{fill:#B70000;}
	.st53{fill:#B20000;}
	.st54{fill:#AC0000;}
	.st55{fill:#A70000;}
	.st56{fill:#A20000;}
	.st57{fill:#9D0000;}
	.st58{fill:#980000;}
	.st59{fill:#930000;}
	.st60{fill:#8E0000;}
	.st61{fill:#890000;}
	.st62{fill:#840000;}
	.st63{clip-path:url(#SVGID_13_);enable-background:new    ;}
	.st64{clip-path:url(#SVGID_15_);enable-background:new    ;}
	.st65{fill:#CB0000;}
	.st66{clip-path:url(#SVGID_17_);enable-background:new    ;}
	.st67{fill:#880000;}
	.st68{clip-path:url(#SVGID_19_);enable-background:new    ;}
	.st69{fill:#DB0000;}
	.st70{clip-path:url(#SVGID_21_);enable-background:new    ;}
	.st71{clip-path:url(#SVGID_23_);enable-background:new    ;}
	.st72{fill:#FF3D3D;}
	.st73{fill:#FF3535;}
	.st74{fill:#FF2B2B;}
	.st75{fill:#FF1F1F;}
	.st76{fill:#F90000;}
	.st77{fill:#F40000;}
	.st78{fill:#EF0000;}
	.st79{fill:#EA0000;}
	.st80{fill:#E50000;}
	.st81{fill:#DF0000;}
	.st82{fill:#DA0000;}
	.st83{fill:#D50000;}
	.st84{fill:#D00000;}
	.st85{clip-path:url(#SVGID_25_);enable-background:new    ;}
	.st86{clip-path:url(#SVGID_27_);enable-background:new    ;}
	.st87{clip-path:url(#SVGID_29_);enable-background:new    ;}
	.st88{clip-path:url(#SVGID_31_);enable-background:new    ;}
	.st89{clip-path:url(#SVGID_33_);enable-background:new    ;}
	.st90{fill:#FF4444;}
	.st91{clip-path:url(#SVGID_35_);enable-background:new    ;}
	.st92{fill:#FC0000;}
	.st93{clip-path:url(#SVGID_37_);enable-background:new    ;}
	.st94{clip-path:url(#SVGID_39_);enable-background:new    ;}
	.st95{fill:#FF8888;}
	.st96{fill:#FF8484;}
	.st97{fill:#FF8181;}
	.st98{fill:#FF7E7E;}
	.st99{fill:#FF7A7A;}
	.st100{fill:#FF7777;}
	.st101{fill:#FF7272;}
	.st102{fill:#FF6E6E;}
	.st103{fill:#FF6A6A;}
	.st104{fill:#FF6565;}
	.st105{fill:#FF6161;}
	.st106{fill:#FF5C5C;}
	.st107{fill:#FF5757;}
	.st108{fill:#FF5151;}
	.st109{fill:#FF4B4B;}
	.st110{clip-path:url(#SVGID_41_);enable-background:new    ;}
	.st111{fill:#FF8B8B;}
	.st112{clip-path:url(#SVGID_43_);enable-background:new    ;}
	.st113{fill:#FFFFFF;}
	.st114{clip-path:url(#SVGID_45_);}
	.st115{clip-path:url(#SVGID_47_);}
	.st116{fill:#E9A665;}
	.st117{fill:#FFCC91;}
	.st118{fill:#FBBD7A;}
	.st119{fill:#FFDCB7;}
	.st120{clip-path:url(#SVGID_49_);}
	.st121{opacity:0.1;fill:#003F3F;}
	.st122{clip-path:url(#SVGID_51_);}
	.st123{clip-path:url(#SVGID_53_);}
	.st124{clip-path:url(#SVGID_55_);}
	.st125{clip-path:url(#SVGID_57_);}
	.st126{clip-path:url(#SVGID_59_);}
	.st127{fill:#3F1C00;}
	.st128{fill:#5E3100;}
	.st129{fill:#003366;}
	.st130{fill:#073981;}
	.st131{fill:#BB2626;}
	.st132{fill:#FF4040;}
	.st133{clip-path:url(#SVGID_61_);}
	.st134{clip-path:url(#SVGID_63_);}
	.st135{fill:#FBBF87;}
	.st136{fill:#262626;}
	.st137{fill:#F6B077;}
	.st138{fill:none;stroke:#AE6604;stroke-width:0.1953;stroke-miterlimit:10;}
	.st139{fill:#E9985E;}
	.st140{fill:#23273F;}
	.st141{fill:#F5924B;}
	.st142{fill:#D1E39E;}
	.st143{fill:#F39139;}
	.st144{fill:#B5CE79;}
	.st145{fill:#DAE9EB;}
	.st146{fill:#B5CCCC;}
	.st147{fill:#7796A4;}
	.st148{fill:#EDF2F3;}
	.st149{fill:#E0893F;}
	.st150{fill:#84C8E2;}
	.st151{fill:#DE6A26;}
	.st152{fill:#876126;}
	.st153{fill:#396A80;}
	.st154{fill:#81A1A5;}
	.st155{fill:#434A56;}
	.st156{fill:#F16322;}
	.st157{fill:none;stroke:#F16322;stroke-width:0.9851;stroke-linecap:round;stroke-linejoin:round;}
	.st158{fill:none;stroke:#F16322;stroke-width:0.9851;stroke-linecap:round;stroke-linejoin:round;stroke-dasharray:2.0335,2.0335;}
	.st159{fill:none;stroke:#F16322;stroke-width:0.9851;stroke-linecap:round;stroke-linejoin:round;stroke-dasharray:1.9278,1.9278;}
	
		.st160{fill:none;stroke:#F16322;stroke-width:0.9851;stroke-linecap:round;stroke-linejoin:round;stroke-miterlimit:10;stroke-dasharray:1.9702;}
	.st161{fill:none;stroke:#F16322;stroke-width:0.985;stroke-linecap:round;stroke-linejoin:round;}
	.st162{fill:#F05A24;}
	.st163{clip-path:url(#SVGID_65_);}
	.st164{clip-path:url(#SVGID_67_);}
	.st165{fill:url(#SVGID_70_);}
	.st166{fill:url(#SVGID_71_);}
	.st167{fill:#ECECEC;}
	.st168{fill:url(#SVGID_72_);}
	.st169{clip-path:url(#SVGID_74_);}
	.st170{clip-path:url(#SVGID_76_);}
	.st171{clip-path:url(#SVGID_78_);}
	.st172{fill:#EF943E;}
	.st173{fill:#3B8816;}
	.st174{fill:#16007E;}
	.st175{fill:url(#SVGID_79_);}
	.st176{opacity:0.8;}
	.st177{opacity:0.2;fill:url(#SVGID_80_);}
	.st178{opacity:0.2;fill:url(#SVGID_81_);}
	.st179{opacity:0.2;fill:url(#SVGID_82_);}
	.st180{opacity:0.49;fill:url(#SVGID_83_);}
	.st181{opacity:0.49;fill:url(#SVGID_84_);}
	.st182{opacity:0.49;fill:url(#SVGID_85_);}
	.st183{opacity:0.6;fill:url(#SVGID_86_);}
	.st184{opacity:0.6;fill:url(#SVGID_87_);}
	.st185{opacity:0.5;fill:url(#SVGID_88_);}
	.st186{clip-path:url(#SVGID_90_);}
	.st187{clip-path:url(#SVGID_92_);}
	.st188{fill:url(#SVGID_95_);}
	.st189{fill:url(#SVGID_96_);}
	.st190{fill:url(#SVGID_97_);}
	.st191{fill:url(#SVGID_98_);}
	.st192{fill:url(#SVGID_99_);}
	.st193{fill:url(#SVGID_100_);}
	.st194{fill:url(#SVGID_101_);}
	.st195{fill:url(#SVGID_102_);}
	.st196{fill:#F1F1F1;}
	.st197{fill:url(#SVGID_103_);}
	.st198{fill:url(#SVGID_104_);}
	.st199{fill:url(#SVGID_105_);}
	.st200{fill:url(#SVGID_106_);}
	.st201{fill:url(#SVGID_107_);}
	.st202{fill:url(#SVGID_108_);}
	.st203{opacity:0.2;}
	.st204{fill:url(#SVGID_109_);}
	.st205{fill:url(#SVGID_110_);}
	.st206{fill:url(#SVGID_111_);}
	.st207{fill:#F8A318;}
	.st208{fill:#F57E00;}
	.st209{fill:#FFD562;}
	.st210{opacity:0.3;fill:#FFFFFF;}
	.st211{opacity:0.2;fill:#FCE7A2;}
	.st212{clip-path:url(#SVGID_113_);}
	.st213{clip-path:url(#SVGID_115_);}
	.st214{fill:url(#SVGID_118_);}
	.st215{fill:url(#SVGID_119_);}
	.st216{fill:url(#SVGID_120_);}
	.st217{clip-path:url(#SVGID_122_);}
	.st218{clip-path:url(#SVGID_124_);}
	.st219{clip-path:url(#SVGID_126_);}
	.st220{fill:url(#SVGID_127_);}
	.st221{opacity:0.2;fill:url(#SVGID_128_);}
	.st222{opacity:0.2;fill:url(#SVGID_129_);}
	.st223{opacity:0.2;fill:url(#SVGID_130_);}
	.st224{opacity:0.49;fill:url(#SVGID_131_);}
	.st225{opacity:0.49;fill:url(#SVGID_132_);}
	.st226{opacity:0.49;fill:url(#SVGID_133_);}
	.st227{opacity:0.6;fill:url(#SVGID_134_);}
	.st228{opacity:0.6;fill:url(#SVGID_135_);}
	.st229{opacity:0.5;fill:url(#SVGID_136_);}
	.st230{clip-path:url(#SVGID_138_);}
	.st231{clip-path:url(#SVGID_140_);}
	.st232{fill:none;}
	.st233{fill:#FDCB00;}
	.st234{fill:#D40029;}
	.st235{fill:#FF5900;}
	.st236{fill:#2A007C;}
	.st237{fill:#0075B8;}
	.st238{fill:#00A557;}
	.st239{fill:#D72B23;}
	.st240{fill:#07287F;}
	.st241{fill:#FBFBFB;}
	.st242{clip-path:url(#SVGID_144_);}
	.st243{fill:#231F20;}
	.st244{fill:#E26556;}
	.st245{clip-path:url(#SVGID_146_);}
	.st246{fill-rule:evenodd;clip-rule:evenodd;fill:#AF1E1D;}
	.st247{fill-rule:evenodd;clip-rule:evenodd;fill:#FFF000;}
	.st248{fill:#AF1E1D;}
	.st249{fill:#02819F;}
	.st250{fill:#02809F;}
	.st251{fill:#20A849;}
	.st252{fill:#F0AD18;}
	.st253{fill:#D92721;}
	.st254{fill:#D92722;}
	.st255{fill:#2A256F;}
	.st256{fill:#6E98B1;}
	.st257{fill:#1487A4;}
	.st258{fill:#FBFCFD;}
</style>
<g>
	<path class="st249" d="M211.59,76.55c0.55-0.16,25.7-0.24,27.3-0.08c0.13,0.22-0.03,0.41-0.09,0.59
		c-2.7,7.78-5.42,15.56-8.12,23.34c-0.16,0.45-0.39,0.64-0.86,0.71c-2.52,0.37-5.05,0.72-7.58,0.99c-2.74,0.29-5.49,0.56-8.24,0.76
		c-3.12,0.23-6.24,0.37-9.36,0.4c-2.53,0.03-5.05,0.04-7.58-0.06c-6.54-0.28-13.02-1.05-19.32-2.93c-3.43-1.03-6.72-2.37-9.71-4.37
		c-1.81-1.21-3.43-2.62-4.74-4.38c-2.33-3.13-3.13-6.64-2.5-10.47c0.84-5.14,3.38-9.39,6.97-13.07c3.33-3.4,7.25-6,11.47-8.14
		c5.77-2.93,11.87-4.89,18.17-6.25c5.04-1.09,10.15-1.75,15.3-2.07c5.36-0.33,10.72-0.2,16.08-0.01c2.29,0.08,4.58,0.2,6.86,0.36
		c2.47,0.18,4.93,0.4,7.37,0.79c0.55,0.09,0.56,0.1,0.38,0.65c-1.09,3.2-2.18,6.4-3.27,9.59c-0.17,0.49-0.42,0.62-0.88,0.38
		c-3.99-2.14-8.39-2.66-12.77-3.3c-3.33-0.48-6.68-0.74-10.04-0.7c-5.08,0.05-10.07,0.68-14.87,2.43c-3.77,1.38-7.15,3.36-9.94,6.28
		c-2.95,3.08-4.67,6.78-5.47,10.93c-0.44,2.27-0.5,4.55,0.08,6.81c0.75,2.91,2.45,5.13,4.98,6.73c2.13,1.34,4.48,2.07,6.93,2.49
		c3.72,0.64,7.46,0.63,11.21,0.35c0.36-0.03,0.62-0.07,0.76-0.49c1.34-3.88,2.79-7.72,4.07-11.62c0.22-0.67,0.38-1.35,0.47-2.05
		c0.16-1.17-0.17-2.16-1.02-2.98c-0.49-0.48-1.06-0.84-1.64-1.18C211.83,76.86,211.59,76.83,211.59,76.55z"/>
	<path class="st250" d="M308.11,100.84c-0.36,0.02-0.61,0.04-0.85,0.04c-8.33,0-16.66,0-24.99,0c-0.83,0-0.73,0.18-0.94-0.76
		c-1.26-5.71-2.51-11.42-3.76-17.13c-0.03-0.12,0.01-0.27-0.21-0.34c-0.09,0.23-0.18,0.46-0.26,0.69c-0.43,1.18-0.99,2.29-1.81,3.26
		c-1.12,1.33-2.5,2.03-4.28,2.02c-4.89-0.04-9.79,0-14.68-0.03c-0.58,0-0.95,0.16-1.3,0.64c-1.2,1.63-2.45,3.23-3.68,4.85
		c-0.52,0.68-0.96,1.42-1.31,2.21c-0.52,1.18-0.37,2.06,0.57,2.97c0.33,0.32,0.72,0.59,1.08,0.89c0.24,0.2,0.53,0.33,0.71,0.59
		c-0.01,0.03-0.02,0.06-0.03,0.08c-0.01,0.02-0.03,0.06-0.04,0.06c-6.19,0-12.38,0-18.57,0c-0.05-0.28,0.15-0.4,0.27-0.55
		c9.78-12.23,19.57-24.46,29.35-36.69c1.07-1.34,2.1-2.72,3.14-4.09c0.42-0.56,0.82-1.14,1.11-1.79c0.52-1.2,0.34-2.28-0.54-3.24
		c-0.41-0.44-0.89-0.8-1.4-1.12c-0.19-0.12-0.44-0.17-0.54-0.41c0.16-0.21,0.39-0.12,0.58-0.12c8.83,0,17.65,0,26.48,0
		c0.65,0,0.66,0.01,0.81,0.66c2.15,8.97,4.29,17.94,6.45,26.9c0.98,4.07,2,8.12,2.96,12.19c0.66,2.82,2.12,5.11,4.32,6.96
		C307.16,99.95,307.65,100.29,308.11,100.84z M260.6,82.08c5.69,0,11.2,0,16.79,0c-1.21-5.65-2.38-11.26-3.63-17.01
		C269.32,70.8,265,76.38,260.6,82.08z"/>
	<path class="st250" d="M310.22,56.27c0.09-0.21,0.23-0.38,0.41-0.52c0.03-0.02,0.05-0.05,0.06-0.08c0,0,0.03-0.05,0.03-0.05
		c0.04-0.05,0.08-0.09,0.12-0.14c0.02-0.09,0.07-0.15,0.15-0.18c0.08-0.03,0.13-0.09,0.15-0.18c0.03-0.05,0.06-0.09,0.09-0.14
		c0.04-0.02,0.07-0.06,0.08-0.1c0,0,0.03-0.04,0.03-0.04c0.04-0.05,0.08-0.1,0.12-0.15c0.05-0.15,0.15-0.26,0.28-0.35
		c0,0,0.04-0.06,0.04-0.06c-0.01-0.04,0.01-0.06,0.04-0.06c0.04-0.04,0.07-0.09,0.11-0.13c0.09-0.21,0.23-0.37,0.41-0.52
		c0.03-0.02,0.05-0.05,0.07-0.09c0,0,0.03-0.05,0.03-0.05c0.04-0.05,0.08-0.09,0.12-0.14c0.02-0.09,0.06-0.15,0.15-0.18
		c0.08-0.03,0.13-0.09,0.15-0.18c0-0.04,0.01-0.08,0.04-0.11c0.51-0.11,1.03,0.06,1.55-0.03c0.05-0.01,0.09,0,0.14,0.01
		c0.41,0.25,0.86,0.16,1.29,0.16c7.11,0.01,14.21,0.01,21.32,0.01c11.84,0,23.69,0,35.53,0.01c0.32,0,0.68-0.13,0.96,0.15
		c-2.6,3.54-5.2,7.07-7.87,10.7c-0.73-1.3-1.84-1.97-3.12-2.38c-0.49-0.16-1-0.27-1.51-0.37c-2.26-0.45-4.56-0.33-6.84-0.34
		c-1.22,0-2.44,0.1-3.66,0.23c-0.46,0.05-0.71,0.24-0.87,0.71c-3.42,9.94-6.86,19.88-10.29,29.82c-0.34,0.98-0.62,1.98-0.78,3.01
		c-0.23,1.52,0,2.92,0.89,4.22c0.35,0.52,0.72,1,1.22,1.38c0.03,0.01,0.06,0.01,0.09,0.01c0,0,0.05,0.04,0.05,0.04
		c0.04,0.04,0.09,0.07,0.13,0.11c0.06,0.05,0.13,0.1,0.19,0.15c0.03,0.08,0.09,0.13,0.17,0.14c0,0,0,0,0,0
		c-0.01,0.1-0.02,0.2-0.03,0.31c-0.57,0.01-1.14,0.03-1.72,0.03c-8.67,0-17.34,0-26.01,0c-0.23,0-0.47-0.02-0.7-0.03
		c-0.04-0.04-0.09-0.09-0.13-0.13c0.05-0.39,0.21-0.75,0.36-1.1c0.03-0.06,0.05-0.11,0.08-0.17c0.33-1.16,0.75-2.3,1.17-3.42
		c0.03-0.06,0.05-0.11,0.08-0.17c0.32-1.16,0.75-2.29,1.17-3.42c0.03-0.06,0.05-0.11,0.08-0.17c0.21-0.85,0.53-1.67,0.84-2.48
		c0.03-0.06,0.06-0.12,0.09-0.19c0.03-0.09,0.05-0.19,0.08-0.28c0.03-0.06,0.06-0.12,0.08-0.18c0.36-1.32,0.86-2.6,1.33-3.88
		c0.03-0.06,0.05-0.11,0.08-0.17c0.18-0.76,0.44-1.48,0.76-2.19c0.02-0.03,0.03-0.07,0.03-0.11c0.52-1.75,1.16-3.46,1.78-5.18
		c0.03-0.06,0.05-0.11,0.08-0.17c0.32-1.16,0.75-2.29,1.17-3.42c0.03-0.06,0.05-0.11,0.08-0.17c0.21-0.85,0.53-1.66,0.84-2.48
		c0.03-0.06,0.06-0.12,0.09-0.19c0.02-0.09,0.05-0.19,0.07-0.28c0.03-0.06,0.06-0.12,0.09-0.18c0.47-1.67,1.12-3.29,1.67-4.93
		c0.52-1.55,1.07-3.09,1.61-4.66c-0.44-0.12-0.85-0.18-1.26-0.2c-3.43-0.17-6.86-0.2-10.28,0.16c-3.22,0.34-6.33,1.18-9.38,2.22
		c-0.27,0.09-0.54,0.18-0.81,0.27c-0.11-0.03-0.24-0.04-0.29-0.18c0.27-0.39,0.55-0.77,0.9-1.1c0.03-0.02,0.04-0.05,0.06-0.08
		c0,0,0.04-0.05,0.04-0.05c0.04-0.05,0.08-0.09,0.11-0.14c0.02-0.09,0.07-0.15,0.15-0.18c0.08-0.03,0.13-0.09,0.15-0.18
		c0.03-0.05,0.07-0.09,0.1-0.14c0.04-0.02,0.07-0.06,0.08-0.1c0,0,0.03-0.04,0.03-0.04c0.04-0.05,0.08-0.1,0.12-0.15
		c0.06-0.15,0.15-0.27,0.28-0.36c0,0,0.03-0.05,0.03-0.05c-0.01-0.04,0.01-0.06,0.05-0.07c0.04-0.04,0.07-0.09,0.11-0.13
		c0.09-0.21,0.23-0.38,0.41-0.52c0.03-0.02,0.05-0.05,0.06-0.08c0,0,0.04-0.05,0.04-0.05c0.04-0.05,0.08-0.09,0.12-0.14
		c0.06-0.16,0.16-0.28,0.3-0.38c0,0,0.01-0.02,0.01-0.02c0-0.05,0.02-0.08,0.06-0.09c0.05-0.03,0.08-0.07,0.09-0.11
		c0.1-0.22,0.24-0.4,0.43-0.54c0,0,0.04-0.06,0.04-0.06c-0.01-0.04,0.01-0.06,0.05-0.07c0.04-0.04,0.07-0.09,0.11-0.13
		c0.09-0.21,0.23-0.38,0.41-0.52c0.03-0.02,0.05-0.05,0.06-0.08c0,0,0.04-0.05,0.04-0.05c0.04-0.05,0.08-0.09,0.12-0.14
		c0.02-0.09,0.06-0.15,0.15-0.18c0.08-0.03,0.13-0.09,0.15-0.18c0.03-0.05,0.06-0.09,0.09-0.14c0.04-0.02,0.07-0.06,0.08-0.1
		c0,0,0.03-0.04,0.03-0.04c0.04-0.05,0.08-0.1,0.12-0.15c0.05-0.15,0.15-0.26,0.28-0.35c0,0,0.04-0.06,0.04-0.06
		c-0.01-0.04,0.01-0.06,0.05-0.07C310.15,56.35,310.19,56.31,310.22,56.27z"/>
	<path class="st250" d="M402.37,52.81c0.1,0.3-0.06,0.56-0.15,0.83c-4.31,12.42-8.63,24.84-12.95,37.26
		c-0.39,1.13-0.85,2.23-1.17,3.39c-0.21,0.75-0.37,1.52-0.34,2.31c0.06,1.43,0.73,2.53,1.9,3.32c0.45,0.3,0.93,0.55,1.41,0.84
		c-0.56,0.17-27.18,0.23-28.55,0.08c-0.08-0.36,0.12-0.66,0.22-0.97c4.12-11.83,8.24-23.65,12.37-35.48
		c0.5-1.45,1.03-2.89,1.54-4.33c0.27-0.76,0.43-1.55,0.48-2.36c0.09-1.55-0.47-2.79-1.71-3.73c-0.46-0.35-0.96-0.61-1.48-0.87
		c0.27-0.24,0.6-0.13,0.89-0.13c6.46-0.02,12.92-0.03,19.38-0.05c0.28,0,0.58,0.09,0.82-0.13c0,0,0,0,0,0
		C397.49,52.88,399.93,52.81,402.37,52.81z"/>
	<path class="st251" d="M139.6,74.89c0.09,0.47,0.49,0.72,0.77,1.04c2.93,3.36,5.57,6.93,7.74,10.83c2.1,3.77,3.7,7.73,4.52,11.98
		c1.24,6.42,0.68,12.62-2.42,18.48c-0.48,0.92-1,1.81-1.75,2.73c-0.08-0.73-0.12-1.34-0.21-1.94c-0.66-4.59-2.37-8.81-4.69-12.79
		c-3.11-5.34-7.16-9.88-11.81-13.91c-0.53-0.46-1.02-0.96-1.61-1.35c-0.09-0.16-0.21-0.28-0.39-0.33c0,0,0,0,0,0
		c-0.38-0.53-0.97-0.8-1.43-1.24l0.01,0.01c-0.06-0.05-0.12-0.11-0.17-0.16l0.02,0.01c-0.06-0.05-0.11-0.09-0.17-0.14L128,88.09
		c-0.04-0.03-0.07-0.07-0.11-0.1c-0.36-0.29-0.61-0.71-1.08-0.87c-0.06-0.31-0.31-0.47-0.51-0.67c-1.06-1.11-2.25-2.08-3.4-3.09
		c-1.49-1.3-2.98-2.59-4.44-3.92c-1.63-1.49-3.32-2.91-4.9-4.45c0.12-0.13,0.24-0.27,0.37-0.4c3.5-3.5,7.26-6.74,10.78-10.22
		c0.58-0.58,1.17-1.18,1.88-1.61c1.22,1.09,2.44,2.18,3.66,3.26c1.18,1.05,2.39,2.07,3.55,3.15c1.02,0.96,2.13,1.84,3.04,2.9
		c0.76,0.88,1.65,1.65,2.37,2.58C139.31,74.75,139.47,74.81,139.6,74.89z"/>
	<path class="st252" d="M87.31,75.13c-0.8-0.96-1.6-1.91-2.39-2.88c-3.21-3.96-6-8.18-8.04-12.86c-2.21-5.06-3.39-10.31-3.05-15.85
		c0.28-4.57,1.54-8.84,4.1-12.68c0.14-0.22,0.3-0.42,0.46-0.63c0.03-0.03,0.09-0.03,0.18-0.07c0.1,0.74,0.07,1.49,0.17,2.22
		c0.46,3.36,1.55,6.51,3.03,9.54c1.94,3.98,4.49,7.55,7.43,10.85c2.37,2.67,5,5.08,7.73,7.37c0.37,0.42,0.76,0.81,1.25,1.1
		l-0.01-0.02c0.1,0.11,0.21,0.22,0.31,0.33l0,0.01c0.06,0.05,0.12,0.1,0.18,0.15l-0.02-0.02c0.06,0.05,0.11,0.11,0.17,0.16l0,0
		c0.04,0.04,0.08,0.07,0.12,0.11c0.04,0.02,0.08,0.06,0.11,0.1c0.08,0.07,0.15,0.13,0.23,0.2c0.32,0.25,0.52,0.64,0.94,0.77
		c0.24,0.56,0.81,0.78,1.21,1.19c1.47,1.54,3.12,2.9,4.69,4.33c2.4,2.18,4.84,4.31,7.27,6.46c-0.31,0.32-0.61,0.64-0.93,0.95
		c-2.59,2.48-5.18,4.96-7.79,7.43c-1.36,1.28-2.65,2.64-4.11,3.83c-0.29-0.08-0.48-0.31-0.69-0.5c-0.66-0.59-1.3-1.2-1.97-1.78
		c-2.44-2.11-4.92-4.17-7.2-6.46C89.57,77.35,88.44,76.25,87.31,75.13z"/>
	<path class="st253" d="M113.37,75.01c-2.43-2.15-4.87-4.28-7.27-6.46c-1.57-1.43-3.22-2.79-4.69-4.33
		c-0.39-0.41-0.96-0.63-1.21-1.19c1.35-1.15,2.57-2.42,3.83-3.66c2.51-2.49,5.05-4.93,7.87-7.08c0.49-0.38,1.04-0.69,1.44-1.17
		c0.35-0.13,0.61-0.4,0.9-0.61c4.91-3.59,10.11-6.66,15.81-8.84c3.76-1.44,7.62-2.44,11.62-2.86c6.47-0.69,12.71,0.11,18.63,2.93
		c0.68,0.32,1.35,0.67,2.1,1.18c-0.61,0.05-1.1,0.1-1.59,0.14c-4.16,0.34-8.11,1.51-11.93,3.14c-5.67,2.43-10.72,5.84-15.34,9.9
		c-1.39,1.22-2.73,2.49-4.02,3.8c0,0,0,0.01,0,0.01c-0.05,0.01-0.08,0.03-0.09,0.09c-0.37,0.26-0.7,0.55-0.95,0.92l0.02-0.02
		c-0.15,0.06-0.29,0.11-0.27,0.32c-0.11,0.11-0.35,0.08-0.36,0.32l0,0c-0.1,0.01-0.15,0.06-0.16,0.16l0,0
		c-0.2,0.03-0.33,0.14-0.39,0.33c-0.04,0.02-0.08,0.05-0.11,0.08l-0.01,0c-0.21,0.21-0.42,0.42-0.62,0.63
		c-0.71,0.44-1.29,1.04-1.88,1.61c-3.52,3.48-7.28,6.72-10.78,10.22c-0.13,0.13-0.25,0.27-0.37,0.4
		C113.5,74.99,113.44,75,113.37,75.01z"/>
	<path class="st254" d="M87.31,75.13c1.13,1.12,2.27,2.22,3.38,3.35c2.27,2.29,4.76,4.35,7.2,6.46c0.67,0.58,1.31,1.18,1.97,1.78
		c0.21,0.19,0.39,0.42,0.69,0.5c-0.34,0.34-0.69,0.69-1.03,1.03c-0.1,0.02-0.19,0.05-0.23,0.16l0,0c-0.09,0.01-0.16,0.05-0.16,0.16
		l0,0c-0.22,0-0.37,0.12-0.46,0.31l-0.01,0.01c-0.09,0-0.15,0.05-0.15,0.15l-0.01,0.01c-0.19,0.01-0.33,0.07-0.3,0.3l0-0.01
		c-0.13-0.01-0.22,0-0.17,0.17l0.01-0.01c-0.14-0.03-0.25-0.03-0.17,0.17l0.01-0.01c-0.31-0.11-0.41,0.08-0.48,0.32l0.01-0.01
		c-0.31-0.05-0.45,0.22-0.65,0.36c-4.39,3.36-9.05,6.27-14.12,8.49c-4.11,1.8-8.37,3.11-12.82,3.71c-6.94,0.93-13.68,0.26-20.1-2.71
		c-0.75-0.35-1.51-0.68-2.13-1.26c3.54-0.14,6.94-0.96,10.26-2.11c6.79-2.35,12.82-6.03,18.2-10.74
		C79.93,82.31,83.58,78.68,87.31,75.13z"/>
	<path class="st252" d="M126.81,87.12c0.46,0.16,0.72,0.58,1.08,0.87c0.04,0.03,0.08,0.06,0.11,0.1c0,0,0.02,0.02,0.02,0.02
		c0.06,0.05,0.11,0.09,0.17,0.14c0,0-0.02-0.01-0.02-0.01c0.06,0.05,0.12,0.11,0.17,0.16c0,0-0.01-0.01-0.01-0.01
		c0.38,0.5,0.78,0.99,1.27,1.38c1.09,1.29,2.21,2.55,3.28,3.86c3.35,4.12,6.21,8.53,8.26,13.45c1.37,3.28,2.33,6.68,2.63,10.23
		c0.55,6.43-0.68,12.46-4.28,17.92c-0.03,0.04-0.04,0.1-0.06,0.14c-0.25,0.15-0.3,0.03-0.3-0.21c-0.03-0.99-0.2-1.96-0.4-2.93
		c-0.82-4.01-2.38-7.74-4.43-11.27c-2.85-4.9-6.5-9.15-10.7-12.94c-3.24-2.93-6.5-5.85-9.75-8.77c-0.1-0.09-0.18-0.19-0.27-0.28
		c0.07-0.07,0.14-0.15,0.22-0.21C118.51,95.29,122.6,91.14,126.81,87.12z"/>
	<path class="st255" d="M126.59,62.75c0.21-0.21,0.42-0.42,0.62-0.63c0,0,0.01,0,0.01,0c0.03-0.03,0.07-0.06,0.11-0.08
		c0.16-0.08,0.32-0.16,0.39-0.33c0,0,0,0,0,0c0.09-0.01,0.15-0.06,0.16-0.16c0,0,0,0,0,0c0.22,0,0.34-0.14,0.43-0.32
		c0.08-0.1,0.27-0.13,0.2-0.32c0,0-0.02,0.02-0.02,0.02c0.59-0.13,0.93-0.61,1.36-0.96c1.74-1.23,3.44-2.51,5.24-3.67
		c4.96-3.2,10.2-5.8,15.89-7.45c4.69-1.36,9.47-1.96,14.34-1.65c4.65,0.29,9.06,1.5,13.18,3.72c0.27,0.15,0.56,0.27,0.85,0.57
		c-0.67,0.05-1.27,0.09-1.86,0.14c-3.95,0.37-7.7,1.46-11.34,2.99c-6.13,2.58-11.55,6.27-16.43,10.76c-3.2,2.94-6.32,5.96-9.48,8.94
		c-0.21,0.2-0.43,0.37-0.65,0.56c-0.13-0.08-0.3-0.14-0.38-0.25c-0.72-0.93-1.6-1.7-2.37-2.58c-0.92-1.06-2.02-1.94-3.04-2.9
		c-1.16-1.08-2.37-2.1-3.55-3.15C129.03,64.93,127.81,63.84,126.59,62.75z"/>
	<path class="st251" d="M113.35,51.12c-0.41,0.48-0.95,0.8-1.44,1.17c-2.81,2.15-5.36,4.6-7.87,7.08c-1.25,1.24-2.48,2.51-3.83,3.66
		c-0.42-0.13-0.62-0.53-0.93-0.77c-0.08-0.07-0.15-0.13-0.23-0.2c-0.03-0.04-0.06-0.07-0.11-0.1c-0.04-0.04-0.08-0.07-0.12-0.11
		c0,0,0,0,0,0c-0.06-0.05-0.11-0.11-0.17-0.16c0,0,0.02,0.02,0.02,0.02c-0.02-0.09-0.07-0.15-0.18-0.15c0,0,0-0.01,0-0.01
		c-0.1-0.11-0.21-0.22-0.31-0.33c0,0,0.01,0.02,0.01,0.02c-0.24-0.53-0.68-0.88-1.09-1.26c-1.17-1.43-2.41-2.79-3.55-4.25
		c-3.23-4.14-6-8.55-7.94-13.45c-1.82-4.63-2.76-9.42-2.41-14.41c0.31-4.4,1.51-8.53,3.88-12.28c0.2-0.32,0.4-0.66,0.78-1.02
		c0.02,1.02,0.11,1.9,0.26,2.79c0.6,3.63,1.89,7.01,3.61,10.24c2.43,4.56,5.59,8.57,9.22,12.23c2.54,2.57,5.32,4.9,7.99,7.33
		C110.39,48.49,111.87,49.8,113.35,51.12z"/>
	<path class="st256" d="M395.06,52.8c-0.25,0.21-0.55,0.13-0.82,0.13c-6.46,0.02-12.92,0.03-19.38,0.05c-0.3,0-0.62-0.11-0.89,0.13
		c-0.09,0.01-0.18,0.02-0.27,0.03c-0.28-0.28-0.64-0.15-0.96-0.15c-11.84-0.01-23.69-0.01-35.53-0.01c-7.11,0-14.21,0-21.32-0.01
		c-0.43,0-0.89,0.1-1.29-0.16c0.52,0,1.04,0.01,1.56,0.01c19.85,0,39.71,0,59.56,0c6.17,0,12.33-0.03,18.5-0.04
		C394.49,52.76,394.77,52.78,395.06,52.8z"/>
	<path class="st256" d="M402.37,52.81c-2.44,0-4.88,0.06-7.32-0.02c0.14-0.09,0.29-0.08,0.45-0.09c2.12-0.01,4.25-0.01,6.37-0.02
		C402.05,52.69,402.24,52.64,402.37,52.81z"/>
	<path class="st256" d="M314.45,52.79c-0.51,0.08-1.03-0.08-1.55,0.03C313.41,52.43,313.93,52.67,314.45,52.79z"/>
	<path class="st256" d="M304.59,63.41c0.05,0.14,0.18,0.15,0.29,0.18c-0.15,0.15-0.32,0.21-0.53,0.17
		C304.34,63.57,304.45,63.48,304.59,63.41z"/>
	<path class="st257" d="M341.46,100.86c0.01-0.1,0.02-0.2,0.03-0.31c0.13,0.02,0.26,0.08,0.25,0.21
		C341.72,100.92,341.57,100.89,341.46,100.86z"/>
	<path class="st257" d="M309.13,57.66c-0.04,0.05-0.08,0.09-0.12,0.14C309.01,57.73,309.05,57.68,309.13,57.66z"/>
	<path class="st257" d="M308.98,57.85c-0.01,0.03-0.03,0.06-0.06,0.08c0,0,0-0.06,0-0.06L308.98,57.85z"/>
	<path class="st257" d="M308.5,58.45c-0.04,0.04-0.07,0.09-0.11,0.13C308.4,58.51,308.44,58.47,308.5,58.45z"/>
	<polygon class="st257" points="308.35,58.65 308.31,58.71 308.3,58.66 	"/>
	<path class="st257" d="M307.88,59.25c-0.02,0.05-0.05,0.09-0.09,0.11C307.82,59.32,307.85,59.29,307.88,59.25z"/>
	<polygon class="st257" points="307.72,59.45 307.71,59.47 307.68,59.46 	"/>
	<path class="st257" d="M307.41,59.85c-0.04,0.05-0.08,0.09-0.12,0.14C307.29,59.91,307.34,59.87,307.41,59.85z"/>
	<path class="st257" d="M307.26,60.04c-0.01,0.03-0.03,0.06-0.06,0.08c0,0,0-0.06,0-0.06L307.26,60.04z"/>
	<path class="st257" d="M306.78,60.64c-0.04,0.04-0.07,0.09-0.11,0.13C306.68,60.7,306.72,60.66,306.78,60.64z"/>
	<polygon class="st257" points="306.63,60.84 306.6,60.89 306.59,60.85 	"/>
	<path class="st257" d="M306.31,61.25c-0.04,0.05-0.08,0.1-0.12,0.15C306.19,61.31,306.24,61.26,306.31,61.25z"/>
	<path class="st257" d="M306.16,61.43c-0.01,0.04-0.04,0.08-0.08,0.1C306.08,61.47,306.11,61.44,306.16,61.43z"/>
	<path class="st257" d="M312.86,52.92c-0.01,0.09-0.06,0.15-0.15,0.18C312.72,53.02,312.77,52.95,312.86,52.92z"/>
	<path class="st257" d="M312.56,53.29c-0.04,0.05-0.08,0.09-0.12,0.14C312.45,53.35,312.49,53.31,312.56,53.29z"/>
	<path class="st257" d="M305.99,61.67c-0.01,0.09-0.06,0.15-0.15,0.18C305.85,61.76,305.9,61.7,305.99,61.67z"/>
	<path class="st257" d="M312.41,53.48c-0.01,0.04-0.03,0.07-0.07,0.09C312.34,53.51,312.36,53.48,312.41,53.48z"/>
	<path class="st257" d="M305.69,62.04c-0.04,0.05-0.08,0.09-0.11,0.14C305.58,62.1,305.62,62.05,305.69,62.04z"/>
	<path class="st257" d="M305.54,62.23c-0.01,0.03-0.03,0.06-0.06,0.08c0,0,0-0.06,0-0.06L305.54,62.23z"/>
	<path class="st257" d="M311.94,54.08c-0.04,0.04-0.07,0.09-0.11,0.13C311.83,54.14,311.87,54.1,311.94,54.08z"/>
	<polygon class="st257" points="311.79,54.27 311.75,54.34 311.74,54.29 	"/>
	<path class="st257" d="M323.33,70.72c-0.03,0.06-0.06,0.12-0.09,0.18C323.22,70.82,323.26,70.76,323.33,70.72z"/>
	<path class="st257" d="M323.17,71.18c-0.03,0.06-0.06,0.12-0.09,0.19C323.06,71.28,323.1,71.23,323.17,71.18z"/>
	<path class="st257" d="M322.24,73.85c-0.03,0.06-0.05,0.11-0.08,0.17C322.14,73.94,322.18,73.89,322.24,73.85z"/>
	<path class="st257" d="M311.47,54.69c-0.04,0.05-0.08,0.1-0.12,0.15C311.35,54.75,311.39,54.71,311.47,54.69z"/>
	<path class="st257" d="M311.32,54.87c-0.01,0.05-0.04,0.08-0.08,0.1C311.23,54.92,311.26,54.88,311.32,54.87z"/>
	<path class="st257" d="M311.14,55.11c-0.01,0.09-0.06,0.15-0.15,0.18C311,55.2,311.05,55.14,311.14,55.11z"/>
	<path class="st257" d="M320.99,77.44c-0.03,0.06-0.05,0.11-0.08,0.17C320.89,77.53,320.93,77.48,320.99,77.44z"/>
	<path class="st257" d="M319.13,82.79c0,0.04-0.01,0.07-0.03,0.11c0,0-0.01-0.06-0.01-0.06L319.13,82.79z"/>
	<path class="st257" d="M318.33,85.09c-0.03,0.06-0.05,0.11-0.08,0.17C318.23,85.18,318.27,85.13,318.33,85.09z"/>
	<path class="st257" d="M310.85,55.48c-0.04,0.05-0.08,0.09-0.12,0.14C310.73,55.54,310.77,55.49,310.85,55.48z"/>
	<path class="st257" d="M310.69,55.67c-0.01,0.04-0.03,0.06-0.06,0.08c0,0,0.01-0.06,0.01-0.06L310.69,55.67z"/>
	<path class="st257" d="M310.22,56.27c-0.04,0.04-0.07,0.09-0.11,0.13C310.11,56.32,310.15,56.28,310.22,56.27z"/>
	<polygon class="st257" points="310.07,56.46 310.03,56.52 310.02,56.48 	"/>
	<path class="st257" d="M309.75,56.87c-0.04,0.05-0.08,0.1-0.12,0.15C309.63,56.94,309.67,56.89,309.75,56.87z"/>
	<path class="st257" d="M316.92,89.14c-0.03,0.06-0.06,0.12-0.08,0.18C316.82,89.24,316.86,89.19,316.92,89.14z"/>
	<path class="st257" d="M309.6,57.06c-0.01,0.05-0.04,0.08-0.08,0.1C309.51,57.1,309.54,57.07,309.6,57.06z"/>
	<path class="st257" d="M316.76,89.61c-0.03,0.06-0.06,0.12-0.09,0.19C316.65,89.71,316.69,89.65,316.76,89.61z"/>
	<path class="st257" d="M315.83,92.27c-0.03,0.06-0.05,0.11-0.08,0.17C315.73,92.37,315.77,92.31,315.83,92.27z"/>
	<path class="st257" d="M314.58,95.87c-0.03,0.06-0.05,0.11-0.08,0.17C314.48,95.96,314.52,95.9,314.58,95.87z"/>
	<path class="st257" d="M313.33,99.46c-0.02,0.06-0.05,0.11-0.08,0.17C313.23,99.55,313.27,99.5,313.33,99.46z"/>
	<path class="st257" d="M340.94,100.12c-0.03,0-0.06,0-0.09-0.01c0,0,0.06-0.04,0.06-0.04L340.94,100.12z"/>
	<path class="st257" d="M341.12,100.26c-0.04-0.04-0.09-0.07-0.13-0.11C341.06,100.16,341.1,100.19,341.12,100.26z"/>
	<path class="st257" d="M341.49,100.55c-0.09-0.01-0.14-0.06-0.17-0.14C341.4,100.42,341.46,100.47,341.49,100.55z"/>
	<path class="st257" d="M309.42,57.3c-0.01,0.09-0.06,0.15-0.15,0.18C309.28,57.39,309.33,57.33,309.42,57.3z"/>
	<path class="st257" d="M312.89,100.73c0.04,0.04,0.09,0.09,0.13,0.13C312.92,100.87,312.86,100.85,312.89,100.73z"/>
	<path class="st255" d="M126.81,87.12c-4.21,4.02-8.3,8.17-13,11.64c-0.08,0.06-0.15,0.14-0.22,0.21c-0.33,0.11-0.57,0.36-0.84,0.56
		c-5.3,3.92-10.94,7.2-17.19,9.38c-4.83,1.69-9.79,2.64-14.92,2.54c-4.83-0.1-9.51-0.99-13.91-3.07c-0.7-0.33-1.39-0.69-2.15-1.22
		c0.52-0.06,0.91-0.11,1.3-0.15c3.68-0.34,7.2-1.31,10.64-2.64c6.56-2.54,12.34-6.33,17.54-11.02c1.06-0.96,2.09-1.96,3.12-2.95
		c0.12-0.11,0.39-0.2,0.23-0.46c0,0-0.01,0.01-0.01,0.01c0.31,0.11,0.39-0.11,0.48-0.32c0,0-0.01,0.01-0.01,0.01
		c0.12,0,0.19-0.04,0.17-0.17c0,0-0.01,0.01-0.01,0.01c0.13,0.01,0.18-0.04,0.17-0.17c0,0,0,0.01,0,0.01
		c0.23,0.03,0.34-0.06,0.3-0.3c0,0,0.01-0.01,0.01-0.01c0.14,0.04,0.19-0.01,0.15-0.15c0,0,0.01-0.01,0.01-0.01
		c0.28,0.07,0.37-0.12,0.46-0.31c0,0,0,0,0,0c0.09-0.01,0.15-0.06,0.16-0.16c0,0,0,0,0,0c0.08-0.05,0.15-0.11,0.23-0.16
		c0.34-0.34,0.69-0.69,1.03-1.03c1.45-1.18,2.75-2.54,4.11-3.83c2.61-2.46,5.2-4.95,7.79-7.43c0.32-0.3,0.62-0.63,0.93-0.95
		c0.06-0.01,0.13-0.02,0.19-0.02c1.58,1.55,3.27,2.96,4.9,4.45c1.46,1.33,2.95,2.62,4.44,3.92c1.15,1.01,2.34,1.98,3.4,3.09
		C126.5,86.65,126.75,86.81,126.81,87.12z"/>
	<path class="st258" d="M128.35,88.4c-0.06-0.05-0.12-0.11-0.17-0.16C128.23,88.29,128.29,88.35,128.35,88.4z"/>
	<path class="st258" d="M128.19,88.25c-0.06-0.05-0.11-0.09-0.17-0.14C128.07,88.15,128.13,88.2,128.19,88.25z"/>
	<path class="st258" d="M99.04,62.06c0.08,0.07,0.15,0.14,0.23,0.2C99.19,62.19,99.12,62.12,99.04,62.06z"/>
	<path class="st258" d="M98.18,61.22c0.1,0.11,0.21,0.22,0.31,0.33C98.39,61.44,98.28,61.33,98.18,61.22z"/>
	<path class="st258" d="M98.65,61.69c0.06,0.05,0.11,0.11,0.17,0.16C98.76,61.79,98.7,61.74,98.65,61.69z"/>
	<path class="st258" d="M98.82,61.85c0.04,0.04,0.08,0.07,0.12,0.11C98.9,61.92,98.86,61.89,98.82,61.85z"/>
	<path class="st256" d="M127.23,62.12c0,0-0.01,0-0.01,0C127.22,62.12,127.23,62.12,127.23,62.12z"/>
</g>
</svg>
