<?xml version="1.0" encoding="UTF-8"?>
<svg xmlns="http://www.w3.org/2000/svg" xmlns:xlink="http://www.w3.org/1999/xlink" width="2694.19pt" height="427pt" viewBox="0 0 2694.19 427" version="1.1">
<defs>
<clipPath id="clip1">
  <path d="M 2417 0 L 2694.191406 0 L 2694.191406 426 L 2417 426 Z M 2417 0 "/>
</clipPath>
<clipPath id="clip2">
  <path d="M 2596 0 L 2694.191406 0 L 2694.191406 98 L 2596 98 Z M 2596 0 "/>
</clipPath>
</defs>
<g id="surface1">
<g clip-path="url(#clip1)" clip-rule="nonzero">
<path style=" stroke:none;fill-rule:nonzero;fill:rgb(13.699341%,12.199402%,12.5%);fill-opacity:1;" d="M 2694.191406 0.15625 L 2595.921875 0.15625 L 2595.921875 167.363281 L 2556.160156 215.730469 L 2516.238281 167.363281 L 2516.238281 0.15625 L 2417.96875 0.15625 L 2417.96875 202.832031 L 2507.019531 310.464844 L 2507.019531 425.773438 L 2605.140625 425.773438 L 2605.140625 310.464844 L 2694.191406 202.832031 L 2694.191406 0.15625 "/>
</g>
<path style=" stroke:none;fill-rule:nonzero;fill:rgb(13.699341%,12.199402%,12.5%);fill-opacity:1;" d="M 1299.730469 2.460938 L 1397.839844 2.460938 L 1397.839844 426.695313 L 1299.730469 426.695313 L 1299.730469 2.460938 "/>
<path style=" stroke:none;fill-rule:nonzero;fill:rgb(13.699341%,12.199402%,12.5%);fill-opacity:1;" d="M 2234.640625 424.085938 L 2136.378906 424.085938 L 2136.378906 49.136719 L 2185.511719 0.00390625 L 2368.21875 0.00390625 L 2368.21875 98.269531 L 2234.640625 98.269531 L 2234.640625 424.085938 "/>
<path style=" stroke:none;fill-rule:nonzero;fill:rgb(13.699341%,12.199402%,12.5%);fill-opacity:1;" d="M 1917.730469 327.8125 L 1917.730469 263.632813 L 2025.371094 263.632813 L 2025.371094 165.519531 L 1917.730469 165.519531 L 1917.730469 98.421875 L 1955.808594 98.269531 L 2069.738281 98.734375 L 2070.050781 0.464844 L 1955.960938 0.00390625 L 1868.289063 0.464844 L 1819.460938 49.597656 L 1819.460938 376.792969 L 1868.601563 425.925781 L 1955.5 425.925781 L 2069.738281 426.386719 L 2070.050781 328.277344 L 1955.660156 327.8125 L 1917.730469 327.8125 "/>
<path style=" stroke:none;fill-rule:nonzero;fill:rgb(13.699341%,12.199402%,12.5%);fill-opacity:1;" d="M 1646.269531 269.621094 L 1606.351563 317.835938 L 1566.429688 269.621094 L 1566.429688 2.308594 L 1468.320313 2.308594 L 1468.320313 304.785156 L 1568.121094 425.773438 L 1644.578125 425.773438 L 1744.378906 304.785156 L 1744.378906 2.308594 L 1646.269531 2.308594 L 1646.269531 269.621094 "/>
<path style=" stroke:none;fill-rule:nonzero;fill:rgb(13.699341%,12.199402%,12.5%);fill-opacity:1;" d="M 201.753906 328.890625 L 98.574219 328.890625 L 98.574219 98.578125 L 201.753906 98.578125 Z M 163.828125 1.386719 L 0 1.386719 L 0 427 L 250.730469 427 L 299.558594 377.867188 L 299.558594 50.519531 L 250.425781 1.386719 L 163.828125 1.386719 "/>
<path style=" stroke:none;fill-rule:nonzero;fill:rgb(13.699341%,12.199402%,12.5%);fill-opacity:1;" d="M 499.3125 98.269531 L 613.242188 98.734375 L 613.703125 0.464844 L 499.46875 0.00390625 L 411.796875 0.464844 L 362.96875 49.597656 L 362.96875 376.792969 L 412.105469 425.925781 L 499.007813 425.925781 L 613.242188 426.386719 L 613.703125 328.277344 L 499.3125 327.8125 L 461.238281 327.8125 L 461.238281 263.632813 L 568.867188 263.632813 L 568.867188 165.519531 L 461.238281 165.519531 L 461.238281 98.421875 L 499.3125 98.269531 "/>
<path style=" stroke:none;fill-rule:nonzero;fill:rgb(13.699341%,12.199402%,12.5%);fill-opacity:1;" d="M 767.246094 1.386719 L 669.132813 1.386719 L 669.132813 377.40625 L 718.265625 426.386719 L 900.828125 426.386719 L 900.828125 328.277344 L 767.246094 328.277344 L 767.246094 1.386719 "/>
<path style=" stroke:none;fill-rule:nonzero;fill:rgb(13.699341%,12.199402%,12.5%);fill-opacity:1;" d="M 1135.128906 2.308594 L 1135.128906 165.519531 L 1047 165.519531 L 1047 1.386719 L 948.886719 1.386719 L 948.886719 426.695313 L 1047 426.695313 L 1047 263.632813 L 1135.128906 263.632813 L 1135.128906 426.695313 L 1233.398438 426.695313 L 1233.398438 2.308594 L 1135.128906 2.308594 "/>
<path style=" stroke:none;fill-rule:nonzero;fill:rgb(88.999939%,39.599609%,33.699036%);fill-opacity:1;" d="M 0.613281 328.890625 L 98.417969 328.890625 L 98.417969 426.695313 L 0.613281 426.695313 L 0.613281 328.890625 "/>
<g clip-path="url(#clip2)" clip-rule="nonzero">
<path style=" stroke:none;fill-rule:nonzero;fill:rgb(88.999939%,39.599609%,33.699036%);fill-opacity:1;" d="M 2596.230469 0.15625 L 2694.039063 0.15625 L 2694.039063 97.964844 L 2596.230469 97.964844 L 2596.230469 0.15625 "/>
</g>
</g>
</svg>
