<?xml version="1.0" ?><!DOCTYPE svg  PUBLIC '-//W3C//DTD SVG 1.1//EN'  'http://www.w3.org/Graphics/SVG/1.1/DTD/svg11.dtd'><svg height="1988px" style="shape-rendering:geometricPrecision; text-rendering:geometricPrecision; image-rendering:optimizeQuality; fill-rule:evenodd; clip-rule:evenodd" version="1.1" viewBox="0 0 319 319" width="1988px" xml:space="preserve" xmlns="http://www.w3.org/2000/svg" xmlns:xlink="http://www.w3.org/1999/xlink"><defs><style type="text/css">
   <![CDATA[
    .str0 {stroke:#727271;stroke-width:1.33617}
    .fil0 {fill:#FEFEFE}
    .fil1 {fill:#305192}
   ]]>
  </style></defs><g id="Layer_x0020_1"><g id="_1956903020512"><rect class="fil0 str0" height="317" rx="24" ry="24" width="317" x="1" y="1"/><g><path class="fil1" d="M108 170c2,-1 3,-1 4,0l1 3c-3,2 -3,2 -6,0l1 -3zm-16 -1c4,-1 6,0 5,4 0,1 -1,1 -1,1 -4,1 -5,-1 -4,-5zm21 -2c0,1 2,1 -4,1 -2,0 -3,0 -5,0 -3,0 -7,0 -10,0 -1,-5 0,-10 -1,-14l-1 -1 0 -3c5,-2 4,3 4,16l17 1zm-16 -16l23 0c-1,3 -2,5 -4,7 -3,8 1,6 -19,6l0 -13zm31 8c3,-17 -5,-28 -23,-27 -14,1 -23,13 -25,26 -6,38 44,37 48,1z"/><path class="fil1" d="M43 176c-1,-4 4,-26 5,-33 9,0 24,-2 18,19 -4,16 -13,14 -23,14zm-14 9c14,0 26,2 36,-4 9,-5 13,-15 13,-26 0,-25 -16,-22 -40,-22l-9 52z"/><path class="fil1" d="M225 142c19,-5 16,31 1,34 -20,5 -18,-30 -1,-34zm24 18c3,-17 -5,-29 -23,-28 -14,2 -23,13 -25,27 -6,37 43,37 48,1z"/><path class="fil1" d="M180 176c0,-2 13,-17 15,-20 11,-14 10,-10 12,-22l-38 0 0 8 21 1c-5,6 -10,13 -16,19 -9,11 -11,12 -13,23l40 0 0 -9 -21 0z"/><path class="fil1" d="M248 143l14 0 -7 42c3,0 7,0 9,0 4,0 3,-1 4,-5l5 -33c1,-5 0,-4 15,-4l1 -10 -40 0 -1 10z"/><path class="fil1" d="M168 143c0,-3 1,-6 1,-10l-41 0 0 10 14 0 -7 42 12 0 7 -42 14 0z"/><path class="fil1" d="M105 153c0,2 0,4 0,6 0,5 0,3 2,4 0,-2 0,-4 0,-6 0,-4 1,-4 -2,-4z"/><path class="fil1" d="M109 161c0,3 0,1 1,2 1,-2 1,-8 1,-10l-2 0 0 8z"/><path class="fil1" d="M99 153c0,2 0,4 0,6 0,5 0,3 1,4 1,-2 0,-7 0,-10l-1 0z"/><path class="fil1" d="M102 153c0,2 0,4 0,6 0,5 0,3 1,4 1,-2 1,-7 1,-10l-2 0z"/><path class="fil1" d="M113 163c1,-4 0,-6 0,-10l-1 0 1 10z"/><path class="fil1" d="M115 156c4,-3 2,-3 2,-3 -2,0 -2,-1 -2,3z"/></g></g></g></svg>