<?xml version="1.0" encoding="UTF-8"?>
<svg xmlns="http://www.w3.org/2000/svg" xmlns:xlink="http://www.w3.org/1999/xlink" width="193pt" height="193pt" viewBox="0 0 193 193" version="1.1">
<g id="surface1">
<path style=" stroke:none;fill-rule:evenodd;fill:rgb(100%,100%,100%);fill-opacity:1;" d="M 0 0.242188 L 192.757813 0.242188 L 192.757813 193 L 0 193 L 0 0.242188 "/>
<path style=" stroke:none;fill-rule:evenodd;fill:rgb(95.698547%,47.499084%,12.5%);fill-opacity:1;" d="M 94.96875 108.289063 L 91.082031 103.929688 L 87.234375 108.289063 L 79.132813 108.289063 L 87.050781 99.390625 L 79.132813 90.488281 L 87.488281 90.488281 L 91.410156 94.8125 L 95.1875 90.488281 L 103.253906 90.488281 L 95.371094 99.351563 L 103.359375 108.289063 L 94.96875 108.289063 "/>
<path style=" stroke:none;fill-rule:evenodd;fill:rgb(95.698547%,47.499084%,12.5%);fill-opacity:1;" d="M 63.566406 108.289063 L 63.566406 80.25 L 79.132813 80.25 L 79.132813 86.5 L 70.160156 86.5 L 70.160156 90.488281 L 79.132813 90.488281 L 79.132813 96.503906 L 70.160156 96.503906 L 70.160156 102.023438 L 79.132813 102.023438 L 79.132813 108.289063 L 63.566406 108.289063 "/>
<path style=" stroke:none;fill-rule:evenodd;fill:rgb(27.799988%,18.399048%,57.299805%);fill-opacity:1;" d="M 57 80.25 L 57 91.722656 L 56.929688 91.722656 C 55.476563 90.054688 53.660156 89.472656 51.554688 89.472656 C 47.234375 89.472656 43.984375 92.40625 42.84375 96.285156 C 41.542969 92.011719 38.183594 89.394531 33.207031 89.394531 C 29.164063 89.394531 25.972656 91.207031 24.308594 94.164063 L 24.308594 90.488281 L 15.953125 90.488281 L 15.953125 86.5 L 25.070313 86.5 L 25.070313 80.25 L 8.503906 80.25 L 8.503906 108.289063 L 15.953125 108.289063 L 15.953125 96.503906 L 23.375 96.503906 C 23.15625 97.367188 23.035156 98.296875 23.035156 99.273438 C 23.035156 105.121094 27.503906 109.226563 33.207031 109.226563 C 38.003906 109.226563 41.164063 106.976563 42.835938 102.871094 L 36.453125 102.871094 C 35.589844 104.105469 34.933594 104.46875 33.207031 104.46875 C 31.207031 104.46875 29.480469 102.722656 29.480469 100.65625 L 42.476563 100.65625 C 43.039063 105.300781 46.660156 109.304688 51.625 109.304688 C 53.769531 109.304688 55.730469 108.253906 56.929688 106.472656 L 57 106.472656 L 57 108.289063 L 63.566406 108.289063 L 63.566406 80.25 Z M 29.6875 96.585938 C 30.101563 94.804688 31.480469 93.640625 33.207031 93.640625 C 35.105469 93.640625 36.417969 94.769531 36.761719 96.585938 C 36.90625 96.585938 29.6875 96.585938 29.6875 96.585938 Z M 53.015625 104.019531 C 50.597656 104.019531 49.09375 101.765625 49.09375 99.410156 C 49.09375 96.894531 50.402344 94.472656 53.015625 94.472656 C 55.730469 94.472656 56.808594 96.894531 56.808594 99.410156 C 56.808594 101.796875 55.664063 104.019531 53.015625 104.019531 "/>
<path style=" stroke:none;fill-rule:evenodd;fill:rgb(27.799988%,18.399048%,57.299805%);fill-opacity:1;" d="M 147.515625 108.277344 L 147.515625 107.449219 C 148.601563 107.398438 149.015625 106.929688 149.015625 106.152344 L 149.015625 99.117188 C 149.015625 97.355469 148.703125 96.785156 147.410156 96.734375 L 147.410156 95.90625 L 150.980469 95.898438 L 150.980469 98.753906 L 151.03125 98.753906 C 151.367188 97.40625 152.300781 95.59375 153.851563 95.59375 C 154.949219 95.59375 155.808594 96.472656 155.808594 97.859375 C 155.808594 98.835938 155.246094 99.355469 154.574219 99.355469 C 154.003906 99.355469 153.363281 98.980469 153.363281 98.003906 C 153.363281 97.382813 153.890625 96.867188 154.15625 96.757813 C 154.113281 96.515625 153.847656 96.421875 153.738281 96.421875 C 152.152344 96.421875 151.238281 100.226563 151.238281 102.480469 L 151.238281 106.152344 C 151.238281 106.929688 151.65625 107.398438 153.414063 107.449219 L 153.414063 108.277344 L 147.515625 108.277344 "/>
<path style=" stroke:none;fill-rule:evenodd;fill:rgb(27.799988%,18.399048%,57.299805%);fill-opacity:1;" d="M 139.507813 102.585938 C 139.507813 98.1875 140.800781 96.582031 142.148438 96.582031 C 143.46875 96.582031 144.402344 98.1875 144.402344 102.171875 C 144.402344 106.105469 143.46875 107.761719 142.097656 107.761719 C 141.035156 107.761719 139.507813 106.570313 139.507813 102.585938 Z M 136.242188 96.738281 C 136.925781 96.808594 137.28125 97.027344 137.28125 98.070313 L 137.28125 110.871094 C 137.28125 111.648438 136.867188 112.109375 135.625 112.164063 L 135.625 112.996094 L 141.425781 112.996094 L 141.425781 112.164063 C 139.921875 112.109375 139.507813 111.648438 139.507813 110.871094 L 139.507813 106.910156 L 139.5625 106.910156 C 140.078125 107.867188 140.929688 108.589844 142.277344 108.589844 C 145.101563 108.589844 146.9375 105.667969 146.9375 102.09375 C 146.9375 99.453125 145.464844 95.597656 142.507813 95.597656 C 140.855469 95.597656 139.792969 96.789063 139.402344 98.03125 L 139.351563 98.03125 L 139.351563 95.902344 L 136.242188 95.902344 L 136.242188 96.738281 "/>
<path style=" stroke:none;fill-rule:evenodd;fill:rgb(27.799988%,18.399048%,57.299805%);fill-opacity:1;" d="M 110.601563 108.289063 L 110.601563 107.460938 C 112.203125 107.351563 112.515625 107.042969 112.515625 105.699219 L 112.515625 93.074219 C 112.515625 91.726563 112.203125 91.421875 110.601563 91.3125 L 110.601563 90.488281 L 122.8125 90.488281 L 122.8125 96.71875 L 121.984375 96.71875 C 121.40625 93.375 120.429688 91.3125 117.402344 91.3125 C 115.570313 91.3125 115.050781 91.882813 115.050781 93.074219 L 115.050781 98.457031 L 116.003906 98.457031 C 117.84375 98.457031 118.304688 97.5 118.589844 95.347656 L 119.417969 95.347656 L 119.417969 102.492188 L 118.589844 102.492188 C 118.230469 100.320313 117.554688 99.441406 115.953125 99.441406 L 115.050781 99.441406 L 115.050781 105.699219 C 115.050781 106.734375 115.4375 107.460938 116.988281 107.460938 C 120.328125 107.460938 121.890625 105.855469 122.34375 101.871094 L 123.175781 101.871094 L 123.175781 108.289063 L 110.601563 108.289063 "/>
<path style=" stroke:none;fill-rule:evenodd;fill:rgb(27.799988%,18.399048%,57.299805%);fill-opacity:1;" d="M 135.71875 108.289063 L 130.335938 108.289063 L 130.335938 107.460938 C 131.316406 107.460938 131.527344 107.226563 131.527344 106.890625 C 131.527344 106.527344 131.296875 106.238281 129.355469 103.320313 C 127.722656 105.90625 127.4375 106.398438 127.4375 106.734375 C 127.4375 107.171875 127.851563 107.40625 128.628906 107.460938 L 128.628906 108.289063 L 124.195313 108.289063 L 124.195313 107.460938 C 125.1875 107.304688 125.863281 106.941406 126.640625 105.75 L 128.785156 102.4375 L 125.476563 97.417969 C 125.140625 96.902344 124.902344 96.800781 124.074219 96.75 L 124.074219 95.917969 L 129.195313 95.917969 L 129.195313 96.75 C 128.398438 96.75 128.035156 96.824219 128.035156 97.289063 C 128.035156 97.652344 128.320313 97.886719 130.128906 100.679688 C 131.734375 98.148438 131.996094 97.859375 131.996094 97.320313 C 131.996094 96.953125 131.710938 96.75 130.75 96.75 L 130.75 95.917969 L 134.988281 95.917969 L 134.988281 96.75 C 134.429688 96.75 133.675781 97.160156 133.078125 98.015625 L 130.699219 101.507813 L 133.882813 106.375 C 134.304688 107.027344 134.65625 107.328125 135.714844 107.457031 L 135.71875 108.289063 "/>
<path style=" stroke:none;fill-rule:evenodd;fill:rgb(27.799988%,18.399048%,57.299805%);fill-opacity:1;" d="M 158.566406 101.039063 C 158.566406 97.730469 159.550781 96.441406 161.023438 96.441406 C 162.394531 96.441406 163.171875 97.730469 163.171875 101.039063 Z M 165.710938 102.023438 C 165.710938 98.300781 163.894531 95.609375 161.023438 95.609375 C 158.105469 95.609375 156.035156 98.300781 156.035156 102.101563 C 156.035156 105.339844 158.152344 108.597656 161.363281 108.597656 C 163.816406 108.597656 165.160156 107.109375 165.679688 104.625 L 164.851563 104.472656 C 164.386719 106.296875 163.527344 107.613281 161.617188 107.613281 C 159.882813 107.613281 158.566406 105.644531 158.566406 102.023438 L 165.710938 102.023438 "/>
<path style=" stroke:none;fill-rule:evenodd;fill:rgb(27.799988%,18.399048%,57.299805%);fill-opacity:1;" d="M 167.03125 108.289063 L 167.03125 103.960938 L 167.863281 103.960938 C 168.113281 105.59375 169.164063 107.765625 171.070313 107.765625 C 172.359375 107.765625 173.34375 106.992188 173.34375 105.519531 C 173.34375 102.183594 167.136719 103.65625 167.136719 99.101563 C 167.136719 97.5 168.300781 95.609375 170.578125 95.609375 C 171.996094 95.609375 172.570313 96.386719 173.035156 96.386719 C 173.289063 96.386719 173.34375 96.101563 173.449219 95.917969 L 174.273438 95.917969 L 174.273438 99.671875 L 173.449219 99.671875 C 173.160156 98.21875 172.289063 96.441406 170.679688 96.441406 C 169.539063 96.441406 168.789063 97.1875 168.789063 98.300781 C 168.789063 101.40625 175.203125 100.007813 175.203125 104.765625 C 175.203125 106.375 173.9375 108.597656 171.199219 108.597656 C 169.464844 108.597656 168.945313 107.664063 168.324219 107.664063 C 168.039063 107.664063 167.910156 108.054688 167.863281 108.289063 L 167.03125 108.289063 "/>
<path style=" stroke:none;fill-rule:evenodd;fill:rgb(27.799988%,18.399048%,57.299805%);fill-opacity:1;" d="M 176.078125 108.289063 L 176.078125 103.960938 L 176.910156 103.960938 C 177.164063 105.59375 178.214844 107.765625 180.113281 107.765625 C 181.40625 107.765625 182.390625 106.992188 182.390625 105.519531 C 182.390625 102.183594 176.183594 103.65625 176.183594 99.101563 C 176.183594 97.5 177.347656 95.609375 179.625 95.609375 C 181.046875 95.609375 181.617188 96.386719 182.082031 96.386719 C 182.339844 96.386719 182.390625 96.101563 182.496094 95.917969 L 183.320313 95.917969 L 183.320313 99.671875 L 182.496094 99.671875 C 182.210938 98.21875 181.339844 96.441406 179.726563 96.441406 C 178.589844 96.441406 177.835938 97.1875 177.835938 98.300781 C 177.835938 101.40625 184.253906 100.007813 184.253906 104.765625 C 184.253906 106.375 182.988281 108.597656 180.246094 108.597656 C 178.511719 108.597656 177.992188 107.664063 177.367188 107.664063 C 177.089844 107.664063 176.960938 108.054688 176.910156 108.289063 L 176.078125 108.289063 "/>
<path style=" stroke:none;fill-rule:evenodd;fill:rgb(95.698547%,47.499084%,12.5%);fill-opacity:1;" d="M 105.15625 106.484375 C 105.15625 105.492188 105.964844 104.683594 106.964844 104.683594 C 107.964844 104.683594 108.761719 105.492188 108.761719 106.484375 C 108.761719 107.484375 107.964844 108.289063 106.964844 108.289063 C 105.964844 108.289063 105.15625 107.484375 105.15625 106.484375 Z M 108.445313 106.484375 C 108.445313 105.667969 107.785156 105 106.964844 105 C 106.140625 105 105.472656 105.667969 105.472656 106.484375 C 105.472656 107.308594 106.140625 107.972656 106.964844 107.972656 C 107.785156 107.972656 108.445313 107.308594 108.445313 106.484375 Z M 106.582031 106.601563 L 106.582031 107.519531 L 106.25 107.519531 L 106.25 105.398438 L 106.9375 105.398438 C 107.324219 105.398438 107.726563 105.507813 107.726563 105.984375 C 107.726563 106.226563 107.578125 106.421875 107.296875 106.480469 L 107.296875 106.488281 C 107.589844 106.546875 107.621094 106.675781 107.65625 106.90625 C 107.683594 107.105469 107.707031 107.328125 107.78125 107.519531 L 107.359375 107.519531 C 107.335938 107.402344 107.300781 107.265625 107.285156 107.140625 C 107.261719 106.957031 107.261719 106.789063 107.164063 106.6875 C 107.085938 106.601563 106.976563 106.613281 106.859375 106.601563 Z M 106.929688 106.273438 C 107.242188 106.261719 107.3125 106.132813 107.3125 105.96875 C 107.3125 105.8125 107.242188 105.730469 106.980469 105.730469 L 106.582031 105.730469 L 106.582031 106.273438 L 106.929688 106.273438 "/>
</g>
</svg>
